<svg xmlns="http://www.w3.org/2000/svg" width="32" height="32" viewBox="0 0 32 32" fill="none">
  <path d="M16.4695 16.3353C14.16 16.4684 13.3939 17.5856 13.4474 18.587C13.5194 19.9374 14.9786 20.5679 16.3833 20.4888C17.7586 20.4133 19.3197 19.8735 19.5859 16.55C18.8723 16.3941 18.0877 16.3125 17.2485 16.3125C16.9935 16.3128 16.7339 16.3201 16.4695 16.3353Z" fill="white"/>
  <path d="M26.3201 0H5.67988C2.54295 0 0 2.54295 0 5.67988V26.2816C0 29.4185 2.54295 31.9615 5.67988 31.9615H26.3201C29.457 31.9615 32 29.4185 32 26.2816V5.67988C32 2.54295 29.457 0 26.3201 0ZM24.9403 11.8029C24.5585 10.417 23.9792 9.228 23.2108 8.28266C21.6439 6.35498 19.2824 5.36604 16.1911 5.34322C13.1222 5.36604 10.8013 6.35016 9.29214 8.26872C7.87908 10.0651 7.14872 12.6598 7.12159 15.9807C7.14872 19.3017 7.87908 21.8964 9.29214 23.6927C10.8013 25.6111 13.1222 26.5954 16.1911 26.6182C18.9577 26.598 20.7885 25.9396 22.3114 24.4183C24.0497 22.6815 24.0172 20.5513 23.4613 19.2548C23.1343 18.4923 22.5423 17.8577 21.7435 17.3758C21.5491 18.8259 21.1082 19.9766 20.4116 20.8646C19.4941 22.034 18.1792 22.6734 16.5032 22.7654C15.2339 22.8346 14.0127 22.5286 13.0646 21.9027C11.9431 21.1622 11.2868 20.0288 11.2165 18.7113C11.0781 16.1138 13.1386 14.2447 16.3435 14.0601C17.4813 13.995 18.5455 14.0465 19.5296 14.2135C19.3991 13.4145 19.1352 12.7812 18.7407 12.3231C18.1987 11.6936 17.3611 11.3712 16.251 11.3641C16.2408 11.3641 16.2304 11.3641 16.22 11.3641C15.329 11.3641 14.1187 11.6135 13.3478 12.7832L11.4939 11.5114C12.5259 9.94518 14.2029 9.08451 16.2193 9.08451C16.2345 9.08451 16.2497 9.08451 16.2649 9.08451C19.6358 9.10606 21.6436 11.2094 21.8429 14.8835C21.9575 14.9327 22.0703 14.9839 22.1816 15.0374C23.7543 15.7919 24.9048 16.9344 25.5081 18.3409C26.349 20.3023 26.4258 23.4975 23.8745 26.0466C21.9243 27.9951 19.557 28.8742 16.1987 28.8976H16.1835C12.406 28.8714 9.50128 27.6003 7.54977 25.1195C5.81323 22.9119 4.91758 19.8402 4.88741 15.9899V15.9807V15.9716C4.91758 12.1213 5.81323 9.04953 7.54977 6.84197C9.50128 4.36112 12.406 3.09003 16.1835 3.06392H16.1987C19.9839 3.09028 22.9218 4.35656 24.9304 6.82777C25.9213 8.04715 26.6497 9.51725 27.1126 11.2234L24.9403 11.8029Z" fill="white"/>
</svg>