<svg xmlns="http://www.w3.org/2000/svg" width="32" height="32" viewBox="0 0 32 32" fill="none">
<path d="M16.224 14.1521L10.3108 5.87817H7.15698L14.4819 16.1268L15.404 17.416L21.6737 26.1958H24.8275L17.1422 15.4414L16.224 14.1521Z" fill="white"/>
<path d="M29.3233 0H2.67667C1.19833 0 0 1.19833 0 2.67667V29.3233C0 30.8017 1.19833 32 2.67667 32H29.3233C30.8017 32 32 30.8017 32 29.3233V2.67667C32 1.19833 30.8017 0 29.3233 0ZM20.706 27.6364L14.3604 18.5993L6.41664 27.6364H4.36364L13.45 17.3023L4.36364 4.36364H11.294L17.3015 12.9192L24.8285 4.36364H26.8814L18.2167 14.2191L27.6364 27.6364H20.706Z" fill="white"/>
</svg>